<svg width="500" height="500" viewBox="0 0 500 500" fill="none" xmlns="http://www.w3.org/2000/svg">
<path d="M500 382.398H0V382.648H500V382.398Z" fill="#3F3D56"/>
<path d="M357.684 389.208H324.562V389.458H357.684V389.208Z" fill="#3F3D56"/>
<path d="M437.267 391.397H428.574V391.647H437.267V391.397Z" fill="#3F3D56"/>
<path d="M377.877 398.494H358.685V398.744H377.877V398.494Z" fill="#3F3D56"/>
<path d="M250 395.111H206.807V395.361H250V395.111Z" fill="#3F3D56"/>
<path d="M197.903 395.111H191.57V395.361H197.903V395.111Z" fill="#3F3D56"/>
<path d="M170.988 390.888H77.312V391.138H170.988V390.888Z" fill="#3F3D56"/>
<path d="M236.807 337.849H43.708C40.561 337.849 38 335.288 38 332.141V60.7089C38 57.5619 40.561 55.0009 43.708 55.0009H236.807C239.953 55.0009 242.514 57.5619 242.514 60.7089V332.141C242.514 335.288 239.953 337.849 236.807 337.849ZM43.708 55.2519C40.698 55.2519 38.25 57.6999 38.25 60.7099V332.142C38.25 335.152 40.698 337.6 43.708 337.6H236.807C239.816 337.6 242.264 335.152 242.264 332.142V60.7089C242.264 57.6999 239.816 55.2509 236.807 55.2509L43.708 55.2519Z" fill="#191D2D"/>
<path d="M453.31 337.8H260.212C257.065 337.8 254.505 335.239 254.505 332.092V60.66C254.505 57.513 257.066 54.952 260.212 54.952H453.31C456.458 54.952 459.018 57.513 459.018 60.66V332.092C459.019 335.239 456.458 337.8 453.31 337.8ZM260.212 55.203C257.203 55.203 254.755 57.651 254.755 60.661V332.093C254.755 335.103 257.203 337.551 260.212 337.551H453.31C456.32 337.551 458.768 335.103 458.768 332.093V60.66C458.768 57.651 456.32 55.202 453.31 55.202L260.212 55.203Z" fill="#191D2D"/>
<path d="M159.439 292.621L435.997 292.621V80.6821L159.439 80.6821V292.621Z" fill="#191D2D"/>
<path d="M143.717 75.672H445.494C446.298 75.672 446.95 76.324 446.95 77.128C446.95 77.932 446.298 78.584 445.494 78.584H143.717C142.913 78.584 142.261 77.932 142.261 77.128C142.261 76.324 142.913 75.672 143.717 75.672Z" fill="#191D2D"/>
<path d="M153.214 292.621L433.088 292.621V80.6821L153.214 80.6821V292.621Z" fill="#191D2D"/>
<path d="M424.373 283.906L424.373 89.3974L161.929 89.3974L161.929 283.906L424.373 283.906Z" fill="#191D2D"/>
<path d="M370.465 283.905L309.915 89.397H274.688L335.237 283.905H370.465Z" fill="#191D2D"/>
<path d="M310.678 283.905L250.13 89.397H236.396L296.945 283.905H310.678Z" fill="#191D2D"/>
<path d="M163.036 283.906L163.036 89.397H161.929L161.929 283.906H163.036Z" fill="#191D2D"/>
<g opacity="0.4">
<path d="M412.217 278.11H439.271V73.065H412.217V278.11Z" fill="#191D2D"/>
<path d="M401.679 278.11H422.756V73.065H401.679V278.11Z" fill="#191D2D"/>
<path d="M385.165 278.11H412.218V73.065H385.165V278.11Z" fill="#191D2D"/>
<path d="M374.626 278.11H395.703V73.065H374.626V278.11Z" fill="#191D2D"/>
<path d="M358.112 278.11H385.165V73.065H358.112V278.11Z" fill="#191D2D"/>
</g>
<g opacity="0.4">
<path d="M167.511 278.111H176.155L176.155 73.0659H167.511L167.511 278.111Z" fill="#191D2D"/>
<path d="M164.144 278.111H170.878L170.878 73.0659H164.144L164.144 278.111Z" fill="#191D2D"/>
<path d="M158.867 278.111H167.511L167.511 73.0659H158.867L158.867 278.111Z" fill="#191D2D"/>
<path d="M155.5 278.111H162.234L162.234 73.0659H155.5L155.5 278.111Z" fill="#191D2D"/>
<path d="M150.224 278.111H158.868L158.868 73.0659H150.224L150.224 278.111Z" fill="#191D2D"/>
</g>
<path d="M75.3797 185.602H137.345V107.711L75.3797 107.711V185.602Z" fill="#191D2D"/>
<path d="M61.7007 185.602H134.971V107.711L61.7007 107.711L61.7007 185.602Z" fill="#191D2D"/>
<path d="M67.9995 114V179.614H128.993V114H67.9995Z" fill="#191D2D"/>
<path d="M406.817 377.407H419.069V311.728H406.817V377.407Z" fill="#191D2D"/>
<path d="M229.527 383.504H414.002V377.406H229.527V383.504Z" fill="#191D2D"/>
<path d="M406.817 311.727H224.462V377.406H406.817V311.727Z" fill="#191D2D"/>
<path d="M396.443 319.717H234.835V339.927H396.443V319.717Z" fill="#191D2D"/>
<path d="M396.443 345.684H234.835V365.894H396.443V345.684Z" fill="#191D2D"/>
<path d="M270.212 321.539H361.065C362.079 321.539 362.91 320.709 362.91 319.695V319.056C362.91 318.041 362.08 317.211 361.065 317.211H270.212C269.198 317.211 268.367 318.041 268.367 319.056V319.695C268.368 320.709 269.198 321.539 270.212 321.539Z" fill="#191D2D"/>
<path d="M270.212 347.505H361.065C362.079 347.505 362.91 346.675 362.91 345.66V345.021C362.91 344.006 362.08 343.176 361.065 343.176H270.212C269.198 343.176 268.367 344.006 268.367 345.021V345.66C268.368 346.675 269.198 347.505 270.212 347.505Z" fill="#191D2D"/>
<path d="M220.946 311.728H406.816V305.839H220.946V311.728Z" fill="#191D2D"/>
<path d="M422.756 305.838H406.816V311.727H422.756V305.838Z" fill="#191D2D"/>
<path d="M100.274 352.559H106.21C106.166 347.249 106.225 320.127 106.628 289.262C106.995 260.653 107.655 249.189 108.213 244.813L103.437 253.134C101.779 259.637 99.019 270.771 98.784 277.608C98.036 299.13 100.949 329.974 100.274 352.559Z" fill="#191D2D"/>
<path d="M95.7629 249.194C87.8459 233.719 72.0389 225.644 55.8839 218.042C49.5409 215.057 67.3429 252.083 80.2859 268.868C90.3399 281.907 100.059 281.615 102.979 294.504C103.538 279.543 102.585 262.527 95.7629 249.194Z" fill="#191D2D"/>
<path d="M110.79 275.371C117.805 266.224 129.354 263.878 141.086 261.934C145.692 261.171 129.678 283.294 119.127 292.31C110.931 299.314 104.396 297.091 101.035 305.473C102.269 294.922 104.746 283.253 110.79 275.371Z" fill="#191D2D"/>
<path d="M96.665 292.862C91.214 285.754 82.24 283.931 73.123 282.421C69.544 281.828 81.987 299.019 90.186 306.024C96.555 311.466 101.632 309.739 104.244 316.252C103.286 308.053 101.362 298.986 96.665 292.862Z" fill="#191D2D"/>
<path d="M107.884 320.723C111.639 315.92 117.76 314.738 123.977 313.77C126.418 313.39 117.839 325.011 112.213 329.727C107.843 333.39 104.397 332.18 102.578 336.597C103.282 331.022 104.649 324.861 107.884 320.723Z" fill="#191D2D"/>
<path d="M104.343 249.773C108.72 234.601 126.005 210.948 143.789 206.085C150.771 204.176 125.676 242.567 117.08 261.674C110.388 276.55 104.096 285.579 103.207 296.238C98.7668 282.838 99.9658 264.945 104.343 249.773Z" fill="#191D2D"/>
<path d="M105.816 382.398C93.4986 382.398 83.3205 380.573 82.6135 368.276L80.5605 347.267H131.07L129.017 368.276C128.311 380.573 118.133 382.398 105.816 382.398Z" fill="#191D2D"/>
<path d="M134.341 351.55H77.2907L75.6567 339.918H135.975L134.341 351.55Z" fill="#191D2D"/>
<path d="M250 427.561C357.082 427.561 443.889 422.492 443.889 416.238C443.889 409.985 357.082 404.915 250 404.915C142.918 404.915 56.1108 409.985 56.1108 416.238C56.1108 422.492 142.918 427.561 250 427.561Z" fill="#191D2D"/>
<path d="M379.242 138.433C379.195 138.433 379.146 138.426 379.098 138.412C378.833 138.332 378.683 138.054 378.763 137.79C387.713 107.976 381.282 81.738 361.56 67.603C343.482 54.647 318.82 54.854 300.19 68.118C247.481 105.647 207.178 112.924 165.43 92.451C165.182 92.329 165.08 92.03 165.201 91.782C165.323 91.534 165.623 91.431 165.87 91.553C207.244 111.84 247.241 104.589 299.61 67.303C318.587 53.791 343.717 53.584 362.142 66.79C382.227 81.185 388.798 107.834 379.72 138.076C379.656 138.294 379.457 138.433 379.242 138.433Z" fill="#407BFF"/>
<path d="M346.146 291.671C336.311 291.671 326.473 289.315 317.092 284.597C280.052 265.973 251.314 266.813 240.219 286.844C240.085 287.086 239.78 287.171 239.539 287.039C239.297 286.905 239.21 286.6 239.344 286.359C250.731 265.801 279.963 264.807 317.542 283.704C336.302 293.137 356.921 292.981 375.601 283.268C397.686 271.782 414.267 248.613 417.843 224.244C417.883 223.971 418.132 223.778 418.41 223.822C418.683 223.862 418.872 224.116 418.832 224.389C415.211 249.065 398.423 272.524 376.062 284.154C366.43 289.164 356.289 291.671 346.146 291.671Z" fill="#407BFF"/>
<path d="M408.204 233.253C408.147 233.253 408.09 233.243 408.033 233.223C407.774 233.129 407.639 232.842 407.734 232.582C418.461 203.088 403.149 191.307 388.342 179.914C374.304 169.113 359.789 157.943 368.059 131.971C368.143 131.708 368.423 131.563 368.687 131.646C368.95 131.73 369.095 132.011 369.012 132.274C360.954 157.578 374.554 168.042 388.951 179.121C404.043 190.734 419.65 202.742 408.673 232.924C408.6 233.127 408.409 233.253 408.204 233.253Z" fill="#407BFF"/>
<path opacity="0.1" d="M398.732 238.057C391.419 262.909 363.543 281.952 338.325 276.02C307.741 268.826 291.625 242.768 297.041 217.434C302.457 192.101 330.689 205.119 356.021 199.693C388.561 192.724 406.044 213.205 398.732 238.057Z" fill="#407BFF"/>
<path d="M253.186 95.259C253.396 97.15 252.033 98.853 250.142 99.062C248.251 99.272 246.549 97.909 246.339 96.018C246.129 94.127 247.492 92.425 249.383 92.215C251.274 92.005 252.977 93.368 253.186 95.259Z" fill="white"/>
<path d="M249.76 99.583C247.778 99.583 246.066 98.088 245.842 96.073C245.603 93.911 247.166 91.958 249.328 91.718C251.491 91.477 253.444 93.042 253.683 95.204C253.922 97.366 252.359 99.319 250.197 99.559C250.051 99.575 249.905 99.583 249.76 99.583ZM249.765 92.694C249.657 92.694 249.548 92.7 249.439 92.712C247.825 92.891 246.658 94.35 246.837 95.963C247.016 97.577 248.482 98.747 250.088 98.565C251.702 98.386 252.869 96.927 252.69 95.314C252.522 93.81 251.244 92.694 249.765 92.694Z" fill="#407BFF"/>
<path d="M371.96 131.743C372.17 133.634 370.807 135.336 368.916 135.546C367.025 135.756 365.323 134.393 365.113 132.502C364.903 130.611 366.266 128.909 368.157 128.699C370.047 128.489 371.75 129.852 371.96 131.743Z" fill="white"/>
<path d="M368.528 136.067C367.636 136.067 366.778 135.767 366.071 135.202C365.248 134.544 364.732 133.604 364.615 132.557C364.499 131.51 364.797 130.48 365.456 129.657C366.114 128.835 367.054 128.318 368.101 128.201C369.15 128.088 370.178 128.383 371 129.042C371.823 129.7 372.34 130.639 372.456 131.687C372.572 132.734 372.273 133.764 371.615 134.586C370.956 135.409 370.017 135.926 368.97 136.042C368.823 136.059 368.675 136.067 368.528 136.067ZM368.542 129.178C368.432 129.178 368.322 129.184 368.211 129.197C367.429 129.283 366.728 129.669 366.237 130.283C365.745 130.897 365.523 131.666 365.61 132.448C365.696 133.23 366.082 133.931 366.696 134.422C367.31 134.914 368.079 135.136 368.86 135.049C369.642 134.963 370.343 134.577 370.835 133.963C371.326 133.349 371.549 132.58 371.462 131.798C371.375 131.016 370.989 130.315 370.375 129.824C369.849 129.402 369.208 129.178 368.542 129.178Z" fill="#407BFF"/>
<path d="M406.352 260.022C406.562 261.913 405.199 263.616 403.308 263.825C401.417 264.035 399.714 262.672 399.505 260.781C399.295 258.89 400.658 257.188 402.549 256.978C404.44 256.769 406.143 258.131 406.352 260.022Z" fill="white"/>
<path d="M402.921 264.347C402.029 264.347 401.17 264.047 400.464 263.482C399.641 262.824 399.124 261.884 399.008 260.837C398.769 258.675 400.332 256.722 402.494 256.482C403.54 256.366 404.571 256.664 405.393 257.323C406.216 257.981 406.733 258.921 406.849 259.969C407.088 262.13 405.525 264.083 403.363 264.323C403.216 264.339 403.068 264.347 402.921 264.347ZM402.935 257.457C402.826 257.457 402.715 257.463 402.604 257.476C400.99 257.655 399.823 259.114 400.002 260.727C400.181 262.341 401.644 263.513 403.253 263.329C404.867 263.15 406.034 261.691 405.855 260.078C405.768 259.297 405.382 258.595 404.768 258.103C404.242 257.681 403.6 257.457 402.935 257.457Z" fill="#407BFF"/>
<path d="M371.074 259.52C370.192 261.205 368.111 261.857 366.425 260.975C364.74 260.093 364.088 258.012 364.97 256.326C365.852 254.64 367.933 253.989 369.619 254.871C371.305 255.753 371.956 257.835 371.074 259.52Z" fill="white"/>
<path d="M368.016 261.866C367.4 261.866 366.776 261.722 366.193 261.418C365.259 260.93 364.572 260.106 364.257 259.102C363.943 258.096 364.038 257.028 364.527 256.095C365.535 254.167 367.923 253.419 369.851 254.428C371.778 255.437 372.525 257.825 371.516 259.752C370.813 261.097 369.438 261.866 368.016 261.866ZM368.027 254.979C366.965 254.979 365.939 255.554 365.413 256.558C365.048 257.255 364.977 258.052 365.212 258.803C365.447 259.553 365.96 260.167 366.657 260.532C368.095 261.284 369.878 260.726 370.631 259.29C371.383 257.851 370.826 256.067 369.387 255.315C368.953 255.087 368.487 254.979 368.027 254.979Z" fill="#407BFF"/>
<path d="M380.913 245.866C380.822 245.866 380.732 245.833 380.662 245.769L360.477 227.546C360.324 227.407 360.311 227.17 360.45 227.016C360.589 226.861 360.827 226.849 360.98 226.989L380.631 244.73L383.339 223.321C383.365 223.115 383.554 222.967 383.758 222.996C383.964 223.022 384.109 223.21 384.083 223.415L381.284 245.537C381.266 245.676 381.173 245.793 381.042 245.842C381 245.858 380.957 245.866 380.913 245.866Z" fill="#263238"/>
<path d="M368.022 258.298C367.924 258.298 367.826 258.26 367.752 258.184C367.608 258.035 367.613 257.797 367.762 257.654L380.652 245.222C380.801 245.078 381.038 245.082 381.182 245.231C381.326 245.38 381.321 245.618 381.172 245.761L368.282 258.193C368.21 258.263 368.116 258.298 368.022 258.298Z" fill="#263238"/>
<path d="M363.386 228.659C362.618 230.127 360.805 230.694 359.337 229.926C357.869 229.158 357.302 227.345 358.07 225.877C358.838 224.409 360.651 223.842 362.119 224.61C363.587 225.379 364.154 227.191 363.386 228.659Z" fill="#407BFF"/>
<path d="M385.591 224.354C385.048 225.392 383.766 225.793 382.728 225.25C381.69 224.707 381.289 223.425 381.832 222.387C382.375 221.349 383.657 220.948 384.695 221.491C385.733 222.034 386.134 223.316 385.591 224.354Z" fill="#263238"/>
<path d="M264.347 181.938C264.393 180.036 265.972 178.532 267.873 178.578C269.775 178.624 271.279 180.203 271.233 182.104C271.187 184.006 269.608 185.51 267.707 185.464C265.805 185.419 264.301 183.84 264.347 181.938Z" fill="white"/>
<path d="M267.791 185.965C267.759 185.965 267.727 185.964 267.694 185.964C265.52 185.911 263.794 184.1 263.846 181.925C263.871 180.872 264.306 179.891 265.069 179.165C265.831 178.438 266.814 178.057 267.885 178.077C270.059 178.13 271.785 179.941 271.733 182.116C271.682 184.258 269.923 185.965 267.791 185.965ZM267.789 179.077C267.03 179.077 266.311 179.364 265.759 179.89C265.19 180.432 264.866 181.164 264.847 181.951C264.807 183.574 266.097 184.926 267.72 184.965C268.509 184.986 269.253 184.696 269.822 184.153C270.391 183.611 270.715 182.879 270.734 182.092C270.753 181.306 270.465 180.559 269.923 179.99C269.38 179.421 268.649 179.097 267.862 179.078C267.837 179.077 267.813 179.077 267.789 179.077Z" fill="#407BFF"/>
<path d="M255.075 181.989C254.886 181.989 254.724 181.847 254.703 181.656L253.55 171.257C253.545 171.209 253.549 171.16 253.562 171.113L257.518 157.212C257.575 157.013 257.782 156.899 257.981 156.954C258.18 157.011 258.296 157.218 258.239 157.417L254.303 171.248L255.448 181.574C255.471 181.78 255.322 181.966 255.117 181.988C255.103 181.988 255.089 181.989 255.075 181.989Z" fill="#263238"/>
<path d="M267.79 182.396C267.709 182.396 267.628 182.37 267.56 182.317L253.692 171.511C253.528 171.384 253.499 171.148 253.627 170.985C253.754 170.822 253.99 170.793 254.153 170.919L268.021 181.725C268.185 181.852 268.214 182.088 268.086 182.251C268.012 182.346 267.902 182.396 267.79 182.396Z" fill="#263238"/>
<path d="M254.879 157.241C254.919 155.585 256.294 154.274 257.95 154.314C259.606 154.354 260.917 155.729 260.877 157.386C260.837 159.042 259.462 160.353 257.805 160.313C256.149 160.273 254.839 158.897 254.879 157.241Z" fill="#407BFF"/>
<path d="M252.955 181.562C252.983 180.391 253.956 179.464 255.127 179.492C256.298 179.52 257.225 180.493 257.197 181.664C257.169 182.835 256.196 183.762 255.025 183.734C253.853 183.706 252.927 182.734 252.955 181.562Z" fill="#263238"/>
<path opacity="0.4" d="M359.033 114.875C364.057 97.201 353.217 78.773 334.987 74.794C318.905 71.283 302.491 80.878 297.613 96.6C294.511 106.596 296.54 116.9 302.153 124.756C303.263 126.31 304.063 128.063 304.4 129.943C305.232 134.586 308.637 138.348 313.174 139.638L323.366 142.535C327.903 143.825 332.778 142.416 335.928 138.905L335.934 138.898C337.195 137.492 338.774 136.422 340.517 135.696C349.222 132.069 356.253 124.653 359.033 114.875Z" fill="#407BFF"/>
<path d="M324.647 150.46L307.912 145.703C306.652 145.345 305.915 144.021 306.273 142.76C306.631 141.5 307.955 140.762 309.216 141.12L325.95 145.877C327.21 146.235 327.947 147.559 327.589 148.82C327.231 150.08 325.908 150.818 324.647 150.46Z" fill="#407BFF"/>
<path d="M321.129 156.65L307.647 152.818C306.387 152.46 305.649 151.136 306.007 149.875C306.365 148.615 307.689 147.877 308.95 148.235L322.432 152.067C323.692 152.425 324.43 153.75 324.072 155.01C323.714 156.27 322.39 157.008 321.129 156.65Z" fill="#407BFF"/>
<path d="M323.365 143.035C323.338 143.035 323.31 143.033 323.282 143.028C323.01 142.983 322.826 142.725 322.871 142.453C323.034 141.47 325.642 126.088 330.604 114.504C329.222 114.245 327.732 113.895 326.128 113.439C324.524 112.983 323.073 112.497 321.762 111.99C319.888 124.452 314.014 138.905 313.636 139.827C313.531 140.083 313.24 140.206 312.984 140.099C312.729 139.995 312.607 139.703 312.711 139.447C312.804 139.22 318.922 124.173 320.802 111.604C311.091 107.563 309.646 102.358 309.516 100.084C309.362 97.383 310.789 94.938 313.069 93.997C315.349 93.056 317.881 93.814 319.839 96.025C322.479 99.003 322.748 104.67 321.907 110.967C323.243 111.495 324.736 112.002 326.402 112.475C328.068 112.949 329.605 113.303 331.019 113.556C333.617 107.76 336.827 103.079 340.638 101.936C343.466 101.089 346.018 101.773 347.462 103.773C348.906 105.772 348.833 108.604 347.281 110.819C345.974 112.684 342.007 116.349 331.623 114.679C326.611 126.358 323.898 142.373 323.858 142.615C323.817 142.861 323.605 143.035 323.365 143.035ZM332.041 113.728C341.992 115.234 345.532 111.573 346.462 110.248C347.77 108.381 347.845 106.016 346.65 104.362C345.467 102.724 343.326 102.176 340.924 102.897C337.469 103.933 334.495 108.273 332.041 113.728ZM315.031 94.607C314.495 94.607 313.964 94.711 313.45 94.922C311.564 95.7 310.384 97.752 310.514 100.027C310.607 101.644 311.691 106.621 320.948 110.573C321.731 104.643 321.485 99.388 319.091 96.688C317.884 95.329 316.444 94.607 315.031 94.607Z" fill="white"/>
<path d="M353.665 168.076L361.193 185.106C361.616 186.063 361.179 187.193 360.222 187.616C359.265 188.039 358.135 187.602 357.712 186.645L350.184 169.615C349.761 168.658 350.198 167.528 351.155 167.105C352.112 166.682 353.242 167.119 353.665 168.076Z" fill="#407BFF"/>
<path d="M304.548 266.16L330.237 264.363C330.871 264.319 331.427 264.801 331.471 265.436C331.515 266.07 331.033 266.625 330.398 266.67L304.709 268.467C304.075 268.511 303.519 268.029 303.475 267.394C303.431 266.759 303.913 266.204 304.548 266.16Z" fill="#263238"/>
<path d="M260.103 125.194L284.886 132.19C285.498 132.363 285.857 133.005 285.684 133.617C285.511 134.229 284.869 134.588 284.257 134.416L259.474 127.42C258.862 127.247 258.503 126.605 258.676 125.993C258.849 125.381 259.491 125.022 260.103 125.194Z" fill="#263238"/>
<path d="M241.614 110.994L228.603 119.288C227.871 119.754 226.891 119.537 226.425 118.806C225.959 118.075 226.176 117.095 226.907 116.628L239.918 108.334C240.649 107.868 241.63 108.085 242.096 108.816C242.563 109.548 242.346 110.528 241.614 110.994Z" fill="#407BFF"/>
<path d="M337.388 211.38C337.731 210.598 337.487 209.546 336.843 209.03L306.618 184.84C305.974 184.324 305.173 184.541 304.83 185.323L295.196 207.284L275.954 221.746C275.273 222.258 275.243 223.09 275.887 223.606L306.112 247.796C306.756 248.312 307.83 248.314 308.512 247.803L327.754 233.341L337.388 211.38Z" fill="#407BFF"/>
<path d="M326.829 232.6L294.271 206.543L303.905 184.582C304.248 183.8 305.048 183.584 305.693 184.099L335.918 208.289C336.562 208.805 336.806 209.857 336.463 210.639L326.829 232.6Z" fill="#407BFF"/>
<path d="M326.083 229.73C326.027 229.73 325.972 229.711 325.927 229.675L296.714 206.295H296.715C296.531 206.149 296.451 205.776 296.553 205.543L305.045 186.186C305.076 186.115 305.139 186.062 305.214 186.044C305.289 186.026 305.369 186.043 305.43 186.091L334.642 209.471C334.826 209.618 334.907 209.991 334.804 210.223L326.312 229.58C326.281 229.651 326.218 229.704 326.143 229.722C326.123 229.727 326.103 229.73 326.083 229.73ZM297.038 205.913L325.986 229.08L334.347 210.021C334.359 209.986 334.341 209.881 334.316 209.847L305.373 186.684L297.012 205.743C296.999 205.777 297.015 205.874 297.038 205.913Z" fill="white"/>
<path d="M326.83 232.6L294.272 206.543L275.03 221.005C274.349 221.517 274.319 222.35 274.963 222.865L305.188 247.055C305.832 247.571 306.907 247.574 307.587 247.062L326.83 232.6Z" fill="#407BFF"/>
<path opacity="0.3" d="M285.004 217.033L292.808 211.168C293.545 210.614 294.707 210.618 295.404 211.175L320.895 231.576C321.592 232.134 321.56 233.035 320.823 233.589L313.019 239.454C312.282 240.008 311.12 240.004 310.423 239.447L284.932 219.046C284.235 218.488 284.267 217.587 285.004 217.033Z" fill="white"/>
<path opacity="0.3" d="M286.404 228.71L290.337 225.754C290.669 225.504 291.193 225.506 291.507 225.757L301.98 234.138C302.294 234.39 302.28 234.796 301.947 235.045L298.014 238.001C297.682 238.251 297.158 238.249 296.844 237.998L286.371 229.617C286.057 229.366 286.072 228.96 286.404 228.71Z" fill="white"/>
<path d="M308.934 171.144C308.769 171.144 308.617 171.034 308.572 170.866C308.518 170.666 308.637 170.46 308.837 170.407L326.042 165.783C326.244 165.729 326.448 165.849 326.502 166.048C326.556 166.248 326.437 166.454 326.237 166.507L309.032 171.131C308.998 171.14 308.965 171.144 308.934 171.144Z" fill="#263238"/>
<path d="M325.029 166.772C324.682 166.159 324.898 165.382 325.511 165.035C326.124 164.688 326.901 164.904 327.248 165.517C327.595 166.13 327.379 166.907 326.766 167.254C326.153 167.6 325.375 167.385 325.029 166.772Z" fill="#407BFF"/>
<path d="M307.824 171.396C307.478 170.783 307.693 170.006 308.306 169.659C308.919 169.312 309.696 169.528 310.043 170.141C310.389 170.754 310.174 171.531 309.561 171.878C308.948 172.225 308.171 172.009 307.824 171.396Z" fill="#407BFF"/>
<path opacity="0.3" d="M219.9 283.267C243.494 271.553 243.966 224.483 220.954 178.133C197.943 131.784 160.161 103.706 136.567 115.42C112.972 127.134 112.5 174.204 135.512 220.554C158.524 266.904 196.305 294.981 219.9 283.267Z" fill="#407BFF"/>
<path d="M157.724 408.656L165.121 408.54L166.821 391.378L159.423 391.494L157.724 408.656Z" fill="#B55B52"/>
<path d="M107.996 395.154L115.048 397.389L123.001 381.937L115.949 379.701L107.996 395.154Z" fill="#B55B52"/>
<path opacity="0.2" d="M166.819 391.383L165.944 400.229L158.544 400.345L159.418 391.499L166.819 391.383Z" fill="black"/>
<path opacity="0.2" d="M115.945 379.705L123 381.941L118.897 389.905L111.842 387.669L115.945 379.705Z" fill="black"/>
<path d="M168.689 398.477L156.163 398.668C156.163 398.668 161.105 350 162.729 327.003C163.222 320.007 162.993 310.112 162.408 299.466C161.664 286.052 161.177 280.678 160.169 263.716C159.45 251.622 158.57 243.79 158.57 243.79L184.497 245.92C184.497 245.92 185.517 304.633 182.576 327.021C179.521 350.3 168.689 398.477 168.689 398.477Z" fill="#407BFF"/>
<path opacity="0.2" d="M165.702 260.048C168.949 272.135 165.797 299.161 162.752 306.51C162.656 304.214 162.539 301.861 162.409 299.469C161.662 286.049 161.174 280.68 160.165 263.719C160.15 263.383 160.124 263.055 160.108 262.728C161.867 261.519 163.757 260.548 165.702 260.048Z" fill="black"/>
<path d="M170.507 244.771C170.507 244.771 158.515 305.092 152.52 325.924C145.955 348.737 122.688 389.313 122.688 389.313L109.771 385.219C109.771 385.219 124.651 350.871 130.143 328.386C136.399 302.774 145.059 242.683 145.059 242.683L170.507 244.771Z" fill="#407BFF"/>
<path d="M116.554 396.898L108.39 393.064C108.116 392.935 107.79 393.014 107.605 393.254L103.487 398.585C103.06 399.138 103.271 399.95 103.908 400.236C106.556 401.424 108.545 402.171 111.854 403.724C113.889 404.68 118.611 407.103 121.421 408.423C124.17 409.714 125.856 407.196 124.872 406.344C120.461 402.525 118.403 400.08 117.448 397.82C117.275 397.412 116.954 397.086 116.554 396.898Z" fill="#263238"/>
<path d="M165.056 407.684L156.978 407.811C156.676 407.816 156.417 408.03 156.356 408.326L154.998 414.924C154.857 415.608 155.385 416.246 156.083 416.223C158.996 416.128 163.205 415.891 166.867 415.834C171.15 415.767 171.64 415.942 176.662 415.864C179.699 415.816 180.494 412.733 179.218 412.475C173.411 411.3 171.896 411.238 166.847 408.233C166.298 407.906 165.694 407.674 165.056 407.684Z" fill="#263238"/>
<path d="M151.742 177.429C160.788 176.789 171.074 177.048 179.602 178.422C185.258 179.333 189.538 184.014 189.905 189.731C190.53 199.482 190.31 218.636 185.721 254.582C180.021 257.076 155.138 254.665 142.924 250.825C143.577 246.714 147.453 213.563 144.612 185.855C144.169 181.544 147.418 177.735 151.742 177.429Z" fill="#263238"/>
<path d="M153.785 190.712L152.273 193.825C151.765 194.893 151.277 195.975 150.803 197.062C149.844 199.232 148.951 201.425 148.1 203.622C147.263 205.825 146.523 208.04 145.848 210.255C145.21 212.476 144.676 214.689 144.285 216.89L143.288 213.481C144.015 214.453 145.069 215.351 146.6 215.976C148.097 216.616 149.925 217.034 151.848 217.243C153.779 217.459 155.814 217.497 157.877 217.412C159.923 217.356 162.086 217.118 164.058 216.855L164.208 216.835C165.57 216.653 166.822 217.61 167.003 218.972C167.154 220.104 166.516 221.16 165.514 221.589C164.349 222.087 163.299 222.462 162.169 222.817C161.054 223.168 159.928 223.499 158.779 223.765C156.482 224.305 154.109 224.657 151.636 224.765C149.165 224.828 146.571 224.695 143.895 223.902C141.243 223.163 138.429 221.628 136.318 219.219C135.527 218.317 135.193 217.172 135.297 216.065L135.322 215.809C135.585 213.094 136.009 210.436 136.612 207.855C137.218 205.281 137.931 202.752 138.773 200.288C139.604 197.82 140.542 195.403 141.565 193.028C142.085 191.844 142.619 190.667 143.179 189.497C143.737 188.306 144.303 187.205 144.989 185.956C146.317 183.536 149.356 182.651 151.776 183.979C154.119 185.265 155.023 188.154 153.873 190.533L153.785 190.712Z" fill="#B55B52"/>
<path d="M161.587 217.351L165.574 212.861L172.122 218.846C172.122 218.846 167.668 223.794 162.948 221.196L161.587 217.351Z" fill="#B55B52"/>
<path d="M172.121 211.134L174.746 213.884C175.661 214.842 175.52 216.387 174.447 217.164L172.122 218.847L165.574 212.862L169.495 210.725C170.362 210.251 171.439 210.419 172.121 211.134Z" fill="#B55B52"/>
<path d="M148.185 178.587C142.149 182.275 136.165 201.795 136.165 201.795L151.97 207.602C151.97 207.602 156.144 201.483 158.482 192.636C160.882 183.552 154.809 174.54 148.185 178.587Z" fill="#263238"/>
<path d="M182.191 178.886C182.06 178.853 182.371 178.901 182.52 178.911L183.128 178.959C183.565 178.982 184.009 179.015 184.479 179.021C185.404 179.045 186.377 179.04 187.352 179.008C189.315 178.947 191.329 178.734 193.355 178.487C194.369 178.361 195.386 178.206 196.405 178.02C197.427 177.878 198.448 177.646 199.473 177.459L202.545 176.782L205.622 176.016L201.922 180.516C202.22 178.828 202.353 176.975 202.294 175.048C202.224 173.122 202.042 171.121 201.708 169.105C201.393 167.084 200.963 165.04 200.459 162.994C199.97 160.966 199.352 158.848 198.773 156.924L198.717 156.738C198.241 155.155 199.139 153.485 200.723 153.009C201.987 152.629 203.309 153.129 204.031 154.151C205.465 156.184 206.584 158.159 207.666 160.282C208.729 162.389 209.654 164.579 210.452 166.855C211.22 169.138 211.885 171.506 212.288 173.995C212.692 176.482 212.895 179.093 212.677 181.817C212.513 183.865 211.155 185.532 209.341 186.188L208.977 186.318L205.64 187.519C204.51 187.886 203.378 188.243 202.231 188.574C199.931 189.222 197.605 189.818 195.206 190.228C192.814 190.669 190.377 190.971 187.87 191.101C186.61 191.145 185.346 191.186 184.036 191.118C183.388 191.094 182.716 191.047 182.039 190.982L180.979 190.848C180.574 190.786 180.331 190.757 179.651 190.615C176.412 189.914 174.355 186.72 175.056 183.481C175.759 180.242 178.953 178.185 182.191 178.886Z" fill="#B55B52"/>
<path d="M197.729 156.732L194.818 151.845L203.323 149.344C203.323 149.344 205.063 153.261 204.323 155.953C204.033 157.01 203.083 157.754 201.996 157.889L200.476 158.077C199.375 158.213 198.297 157.686 197.729 156.732Z" fill="#B55B52"/>
<path d="M196.899 144.07L199.249 143.801C200.716 143.633 202.082 144.571 202.454 146L203.323 149.345L194.818 151.846L194.293 147.358C194.102 145.73 195.27 144.256 196.899 144.07Z" fill="#B55B52"/>
<path d="M173.094 177.097C180.141 177.707 195.311 175.956 195.311 175.956L196.194 195.084C196.194 195.084 189.041 197.851 180.175 195.584C171.072 193.255 165.36 176.428 173.094 177.097Z" fill="#263238"/>
<path d="M161.403 158.375C162.219 163.83 162.829 173.785 158.883 177.221C161.69 180.275 165.765 184.234 172.175 184.75C176.251 182.958 177.277 180.389 175.687 177.981C169.723 176.269 170.081 171.802 171.321 167.649L161.403 158.375Z" fill="#B55B52"/>
<path opacity="0.2" d="M165.446 162.159L171.316 167.644C171.019 168.627 170.778 169.626 170.663 170.603C168.375 170.166 165.325 167.494 165.189 165.072C165.122 163.864 165.225 162.71 165.446 162.159Z" fill="black"/>
<path d="M173.197 139.971C180.68 144.954 174.279 152.989 174.279 152.989C174.279 152.989 170.569 146.439 173.197 139.971Z" fill="white"/>
<path d="M157.449 152.536C159.229 159.66 159.909 163.919 164.235 166.942C170.742 171.489 179.024 166.538 179.408 159.026C179.754 152.265 176.785 141.751 169.199 140.193C161.726 138.659 155.669 145.413 157.449 152.536Z" fill="#B55B52"/>
<path opacity="0.2" d="M169.261 152.229C169.261 152.229 167.376 152.069 166.284 153.207C168.005 153 169.261 152.229 169.261 152.229Z" fill="black"/>
<path opacity="0.2" d="M169.447 152.954C169.447 152.954 167.735 153.169 167.055 154.486C168.529 153.947 169.447 152.954 169.447 152.954Z" fill="black"/>
<path opacity="0.2" d="M169.647 157.595C169.088 157.397 168.291 157.511 168.035 158.477C168.574 157.995 169.175 157.704 169.647 157.595Z" fill="black"/>
<path opacity="0.2" d="M173.886 144.616C173.886 144.616 169.561 145.038 166.253 146.13C170.544 145.424 173.886 144.616 173.886 144.616Z" fill="black"/>
<path opacity="0.2" d="M175.172 145.115C175.172 145.115 169.348 146.314 166.787 147.727C171.872 146.425 175.172 145.115 175.172 145.115Z" fill="black"/>
<path d="M159.466 157.512C162.424 157.208 161.133 152.625 159.966 151.583C162.299 150.541 164.258 146.666 162.633 144.541C171.258 145.208 176.187 144.291 176.848 136.499C174.383 136.999 171.782 134.541 168.458 136.832C170.008 132.874 166.508 131.457 166.508 131.457C166.508 131.457 165.966 136.499 162.175 137.207C158.383 137.915 154.383 140.624 154.133 143.415C153.23 141.109 152.3 140.957 152.3 140.957C152.3 140.957 153.717 143.325 152.3 146.516C150.883 149.707 153.3 150.759 153.3 150.759C153.3 150.759 150.203 150.759 152.147 154.943C153.538 157.939 158.799 161.692 159.466 157.512Z" fill="white"/>
<path d="M155.513 159.234C156.506 160.806 158.132 161.774 159.628 162.087C161.878 162.558 162.852 160.508 162.099 158.464C161.422 156.624 159.435 154.162 157.238 154.61C155.073 155.052 154.378 157.436 155.513 159.234Z" fill="#B55B52"/>
<path d="M124.147 390.082L108.937 385.261L110.377 380.717L127.473 384.526L124.147 390.082Z" fill="#407BFF"/>
<path opacity="0.3" d="M124.147 390.082L108.937 385.261L110.377 380.717L127.473 384.526L124.147 390.082Z" fill="black"/>
<path d="M170.267 398.744L155.34 398.978L155.265 394.155L171.234 393.64L170.267 398.744Z" fill="#407BFF"/>
<path opacity="0.3" d="M170.267 398.744L155.34 398.978L155.265 394.155L171.234 393.64L170.267 398.744Z" fill="black"/>
<path d="M169.871 152.308C169.959 152.898 170.343 153.33 170.729 153.273C171.115 153.216 171.356 152.691 171.269 152.1C171.181 151.51 170.797 151.078 170.411 151.135C170.025 151.193 169.783 151.718 169.871 152.308Z" fill="#263238"/>
<path d="M176.543 151.315C176.631 151.905 177.015 152.337 177.401 152.28C177.787 152.223 178.028 151.697 177.94 151.107C177.852 150.517 177.468 150.085 177.082 150.142C176.696 150.2 176.455 150.725 176.543 151.315Z" fill="#263238"/>
<path d="M174.465 151.924C174.465 151.924 176.314 155.129 178.036 156.552C177.137 157.682 175.295 157.501 175.295 157.501L174.465 151.924Z" fill="#A02724"/>
<path d="M173.133 159.772C170.866 160.097 169.423 158.869 169.356 158.811C169.283 158.748 169.276 158.637 169.339 158.564C169.402 158.491 169.513 158.483 169.586 158.546C169.603 158.56 171.286 159.984 173.798 159.271C173.891 159.245 173.988 159.299 174.014 159.392C174.04 159.485 173.986 159.582 173.893 159.608C173.631 159.684 173.378 159.737 173.133 159.772Z" fill="#263238"/>
<path d="M166.31 150.76C166.252 150.763 166.192 150.751 166.136 150.723C165.963 150.636 165.893 150.426 165.979 150.253C166.847 148.519 168.452 148.318 168.52 148.31C168.713 148.288 168.886 148.426 168.908 148.619C168.93 148.811 168.792 148.984 168.601 149.007C168.548 149.014 167.298 149.184 166.606 150.568C166.548 150.684 166.432 150.753 166.31 150.76Z" fill="white"/>
<path d="M177.817 148.479C177.704 148.485 177.59 148.435 177.517 148.337C176.598 147.092 175.338 147.138 175.284 147.14C175.091 147.149 174.928 147.001 174.917 146.809C174.907 146.616 175.052 146.452 175.245 146.441C175.315 146.438 176.93 146.362 178.081 147.921C178.196 148.077 178.163 148.296 178.007 148.411C177.95 148.454 177.884 148.476 177.817 148.479Z" fill="white"/>
<path d="M118.219 399.108C117.6 398.817 116.992 398.375 116.58 398.044C116.525 398 116.502 397.927 116.521 397.859C116.54 397.791 116.598 397.741 116.669 397.733C116.984 397.695 119.768 397.383 120.33 398.111C120.417 398.224 120.499 398.416 120.391 398.687C120.247 399.052 120.004 399.282 119.669 399.371C119.246 399.484 118.729 399.347 118.219 399.108ZM117.145 398.037C118.175 398.799 119.069 399.168 119.58 399.033C119.804 398.973 119.963 398.818 120.066 398.559C120.116 398.432 120.086 398.368 120.053 398.326C119.76 397.947 118.261 397.942 117.145 398.037Z" fill="#407BFF"/>
<path d="M116.615 398.066C116.585 398.052 116.559 398.029 116.541 398C116.507 397.945 116.506 397.877 116.537 397.821C116.582 397.742 117.649 395.885 118.726 395.615C119.006 395.545 119.266 395.583 119.497 395.728C119.854 395.953 119.844 396.234 119.806 396.381C119.597 397.194 117.568 398.032 116.699 398.083C116.67 398.084 116.641 398.078 116.615 398.066ZM119.242 395.987C119.111 395.926 118.97 395.915 118.812 395.955C118.122 396.128 117.379 397.154 117.036 397.682C117.971 397.482 119.345 396.775 119.468 396.294C119.479 396.25 119.506 396.147 119.312 396.025C119.288 396.01 119.265 395.998 119.242 395.987Z" fill="#407BFF"/>
<path d="M165.8 408.695C165.738 408.675 165.692 408.621 165.682 408.556C165.67 408.482 165.707 408.41 165.772 408.374C166.105 408.195 169.056 406.641 169.962 407.128C170.137 407.222 170.24 407.382 170.259 407.59C170.291 407.939 170.185 408.227 169.944 408.447C169.144 409.178 167.019 408.92 165.824 408.701C165.815 408.699 165.807 408.697 165.8 408.695ZM169.732 407.409C169.171 407.225 167.568 407.865 166.404 408.442C168.042 408.688 169.258 408.598 169.707 408.188C169.865 408.044 169.931 407.858 169.909 407.621C169.901 407.529 169.867 407.474 169.796 407.436C169.776 407.426 169.755 407.417 169.732 407.409Z" fill="#407BFF"/>
<path d="M165.8 408.695C165.784 408.69 165.769 408.682 165.755 408.673C165.704 408.638 165.675 408.577 165.68 408.515C165.687 408.43 165.855 406.435 166.784 405.648C167.067 405.408 167.393 405.302 167.751 405.332C168.233 405.373 168.376 405.615 168.411 405.811C168.559 406.646 166.815 408.273 165.929 408.687C165.888 408.706 165.842 408.709 165.8 408.695ZM167.9 405.714C167.854 405.699 167.796 405.687 167.72 405.681C167.454 405.658 167.222 405.735 167.01 405.915C166.4 406.432 166.155 407.628 166.069 408.211C166.972 407.649 168.154 406.373 168.065 405.872C168.06 405.841 168.046 405.762 167.9 405.714Z" fill="#407BFF"/>
<path d="M101.646 161.264C100.516 149.665 101.06 138.976 103.261 129.493L104.235 129.719C102.059 139.096 101.523 149.677 102.642 161.168L101.646 161.264ZM106.634 121.643L105.696 121.297C106.639 118.741 107.735 116.289 108.955 114.008L109.837 114.48C108.638 116.72 107.561 119.13 106.634 121.643Z" fill="#407BFF"/>
<path d="M136.911 96.397C170.185 89.75 215.117 127.936 237.281 181.69C259.433 235.447 250.431 284.407 217.168 291.052C183.894 297.699 138.962 259.513 116.798 205.759C94.6342 152.005 103.648 103.042 136.911 96.397ZM134.286 202.266C153.874 249.779 191.241 284.001 217.753 278.705C244.254 273.411 249.873 230.602 230.285 183.089C210.697 135.576 173.33 101.354 146.818 106.65C120.306 111.946 114.699 154.752 134.286 202.266ZM107.6 176.399C109.685 172.75 121.99 167.889 124.713 170.603ZM231.678 270.67C234.81 270.292 237.893 277.833 235.803 280.622ZM185.298 120.073C187.396 119.5 189.24 116.611 189.494 114.919Z" fill="#191D2D"/>
<path d="M209.454 292.298C177.078 292.303 136.863 255.734 116.336 205.95C102.062 171.33 100.247 136.642 111.6 115.424C117.274 104.818 125.993 98.069 136.813 95.908C170.253 89.226 215.529 127.625 237.743 181.501C252.013 216.13 253.825 250.821 242.472 272.035C240.683 275.379 238.591 278.339 236.226 280.892C236.219 280.902 236.211 280.913 236.204 280.922L236.201 280.919C231.071 286.447 224.659 290.066 217.266 291.543C214.727 292.05 212.114 292.298 209.454 292.298ZM108.16 176.447C110.177 185.947 113.216 195.759 117.261 205.569C139.302 259.025 184.075 297.146 217.071 290.563C224.244 289.129 230.471 285.616 235.458 280.248C236.504 278.72 235.868 275.56 234.654 273.461C233.812 272.003 232.796 271.157 231.903 271.157H231.901C228.08 275.364 223.321 278.102 217.851 279.195C191.164 284.538 153.467 250.102 133.824 202.457C129.379 191.674 126.177 180.989 124.251 170.861C123.609 170.343 122.318 170.187 120.583 170.421C115.981 171.04 109.755 174.083 108.16 176.447ZM134.748 202.075C154.218 249.302 191.411 283.464 217.655 278.214C225.379 276.671 231.404 271.946 235.565 264.171C245.183 246.195 242.982 215.199 229.823 183.278C210.353 136.052 173.165 101.899 146.916 107.139C139.189 108.682 133.162 113.408 129.001 121.183C119.385 139.156 121.588 170.151 134.748 202.075ZM232.67 270.275C233.688 270.589 234.688 271.519 235.52 272.96C236.449 274.567 237.077 276.694 236.979 278.505C238.686 276.427 240.228 274.108 241.591 271.563C252.806 250.606 250.978 216.242 236.819 181.881C225.547 154.543 208.325 131.211 189.778 115.822C189.244 117.378 187.882 119.373 186.227 120.238C203.32 133.993 219.824 156.399 230.748 182.897C244.019 215.087 246.203 246.41 236.447 264.642C235.333 266.723 234.07 268.603 232.67 270.275ZM137.009 96.888C126.492 98.989 118.011 105.561 112.482 115.895C104.611 130.606 103.165 151.915 107.899 175.189C110.336 172.593 116.354 169.981 120.451 169.429C121.948 169.227 123.142 169.287 124.02 169.608C120.481 150.008 121.77 132.584 128.121 120.713C132.369 112.775 138.801 107.742 146.722 106.16C158.315 103.847 171.982 109.027 185.345 119.536C187.023 118.952 188.574 116.633 188.943 115.135C171.464 100.889 152.874 93.715 137.009 96.888Z" fill="#3F3D56"/>
<path d="M182.082 153.245L213.244 150.028L212.507 144.372L181.562 149.252L182.082 153.245Z" fill="#407BFF"/>
<path opacity="0.2" d="M199.565 146.413L200.212 151.373L213.241 150.026L212.504 144.374L199.565 146.413Z" fill="black"/>
<path d="M201.891 151.08C201.957 151.59 202.416 151.957 202.928 151.909L239.085 148.568C240.52 148.381 239.293 138.972 237.858 139.159L202.053 145.199C201.545 145.285 201.196 145.756 201.263 146.267L201.891 151.08Z" fill="#407BFF"/>
<path d="M182.191 154.074C182.529 154.03 182.77 153.717 182.726 153.379L182.15 148.958C182.106 148.62 181.793 148.379 181.455 148.423C181.117 148.467 180.876 148.78 180.92 149.118L181.496 153.539C181.54 153.877 181.853 154.118 182.191 154.074Z" fill="#407BFF"/>
<path d="M312.613 305.212C313.139 304.306 314.532 304.649 314.559 305.697C314.623 308.185 314.308 311.689 312.538 314.738C309.385 320.169 302.809 322.098 302.809 322.098L312.613 305.212Z" fill="#407BFF"/>
<path d="M304.51 333.81C304.51 333.81 296.099 334.288 289.059 328.797C284.86 325.522 282.097 320.862 280.551 317.635C280.073 316.636 281.257 315.673 282.131 316.354L304.51 333.81Z" fill="#407BFF"/>
<path d="M323.412 346.397C317.623 354.922 306.614 357.313 306.614 357.313L325.872 328.952C326.442 328.112 327.76 328.492 327.78 329.507C327.855 333.487 327.34 340.611 323.412 346.397Z" fill="#407BFF"/>
<path d="M306.374 392.167C306.353 392.167 306.331 392.166 306.31 392.162C306.062 392.127 305.89 391.898 305.925 391.65C308.949 370.408 303.442 313.748 296.997 299.79C296.892 299.562 296.991 299.293 297.218 299.188C297.443 299.083 297.715 299.183 297.819 299.41C304.308 313.46 309.86 370.434 306.821 391.778C306.79 392.004 306.596 392.167 306.374 392.167Z" fill="#263238"/>
<path d="M293.823 367.024H318.925C320.247 367.024 321.288 368.151 321.184 369.469L317.629 414.317C317.536 415.495 316.552 416.404 315.37 416.404H297.378C296.196 416.404 295.212 415.495 295.119 414.317L291.564 369.469C291.46 368.151 292.501 367.024 293.823 367.024Z" fill="#407BFF"/>
<path d="M293.681 302.109C295.067 304.168 297.86 304.713 299.918 303.327C301.977 301.941 302.522 299.148 301.136 297.09C299.75 295.032 296.957 294.486 294.899 295.872C292.84 297.258 292.295 300.051 293.681 302.109Z" fill="white"/>
<path d="M297.416 304.695C295.775 304.695 294.163 303.907 293.18 302.446C291.61 300.115 292.229 296.94 294.561 295.37C296.893 293.802 300.068 294.419 301.637 296.752C303.207 299.083 302.588 302.258 300.256 303.828C299.385 304.415 298.396 304.695 297.416 304.695ZM297.403 295.71C296.656 295.71 295.901 295.925 295.236 296.373C293.457 297.57 292.984 299.993 294.182 301.772C295.379 303.55 297.802 304.024 299.581 302.825C301.36 301.628 301.833 299.205 300.635 297.426C299.885 296.313 298.655 295.71 297.403 295.71Z" fill="#407BFF"/>
<path d="M297.731 314.881C297.833 315.925 298.762 316.69 299.807 316.588C300.851 316.486 301.616 315.557 301.514 314.512C301.412 313.467 300.483 312.703 299.438 312.805C298.393 312.907 297.629 313.836 297.731 314.881Z" fill="#263238"/>
<path d="M302.628 353.475C302.629 354.524 303.48 355.375 304.53 355.374C305.58 355.373 306.43 354.522 306.429 353.472C306.428 352.422 305.577 351.572 304.527 351.573C303.478 351.574 302.627 352.425 302.628 353.475Z" fill="#263238"/>
<path d="M308.215 341.148C309.759 340.926 310.83 339.495 310.608 337.951C310.386 336.407 308.955 335.336 307.411 335.558C305.867 335.78 304.796 337.211 305.018 338.755C305.24 340.298 306.671 341.37 308.215 341.148Z" fill="#263238"/>
</svg>
